<svg width="270" height="269" viewBox="0 0 270 269" fill="none" xmlns="http://www.w3.org/2000/svg">
<path fill-rule="evenodd" clip-rule="evenodd" d="M193.887 162.276C193.283 160.009 191.517 158.237 189.252 157.626L132.608 142.35C130.344 141.739 127.926 142.383 126.265 144.038L84.7127 185.455C83.0516 187.111 82.4 189.527 83.0033 191.794L99.0705 252.15L143.103 208.117C144.761 206.459 147.179 205.811 149.444 206.418L209.954 222.632L193.887 162.276Z" fill="#00BD7D"/>
<path d="M159.374 268.413C161.638 269.024 164.057 268.38 165.718 266.724L209.954 222.632L149.444 206.418C147.179 205.811 144.761 206.459 143.103 208.117L99.0705 252.15L159.374 268.413Z" fill="#00774F"/>
<path fill-rule="evenodd" clip-rule="evenodd" d="M111.105 79.493C110.501 77.2265 108.735 75.4541 106.47 74.8434L49.8261 59.5669C47.5617 58.9562 45.1434 59.6 43.4823 61.2557L1.93049 102.673C0.269363 104.328 -0.382258 106.744 0.221086 109.011L16.2883 169.367L60.3207 125.334C61.9792 123.676 64.3964 123.028 66.6619 123.635L127.172 139.849L111.105 79.493Z" fill="#00BD7D"/>
<path d="M76.5917 185.63C78.8562 186.241 81.2744 185.597 82.9356 183.942L127.172 139.849L66.6619 123.635C64.3964 123.028 61.9792 123.676 60.3207 125.334L16.2883 169.367L76.5917 185.63Z" fill="#00774F"/>
<path fill-rule="evenodd" clip-rule="evenodd" d="M159.741 27.9429L115.505 72.0355C113.844 73.6912 113.192 76.1074 113.796 78.3738L128.888 135.067C129.491 137.334 131.258 139.106 133.522 139.717L190.166 154.993C192.431 155.604 194.849 154.96 196.51 153.304L240.746 109.212L180.597 93.0948C178.332 92.4878 176.562 90.7182 175.955 88.4528L159.741 27.9429Z" fill="#00BD7D"/>
<path d="M175.955 88.4528C176.562 90.7182 178.332 92.4878 180.597 93.0948L240.746 109.212L224.679 48.8558C224.076 46.5894 222.309 44.817 220.045 44.2063L159.741 27.9429L175.955 88.4528Z" fill="#00774F"/>
<path d="M41.2622 180.978C42.2185 180.025 43.6107 179.654 44.9143 180.006L77.5241 188.801C78.8278 189.152 79.8449 190.173 80.1922 191.477L88.8807 224.116C89.2281 225.42 88.8529 226.811 87.8966 227.765L63.9753 251.608C63.019 252.561 61.6268 252.932 60.3232 252.58L27.7134 243.786C26.4097 243.434 25.3927 242.414 25.0453 241.109L16.3568 208.471C16.0094 207.166 16.3846 205.775 17.3409 204.822L41.2622 180.978Z" fill="#00BD7D"/>
<path d="M221.794 133.055C222.75 132.102 224.143 131.732 225.446 132.083L258.057 140.878C259.36 141.229 260.377 142.25 260.725 143.555L269.413 176.193C269.761 177.498 269.385 178.889 268.429 179.842L244.508 203.686C243.551 204.639 242.159 205.01 240.855 204.658L208.245 195.864C206.942 195.512 205.924 194.492 205.577 193.187L196.889 160.548C196.541 159.243 196.916 157.852 197.873 156.899L221.794 133.055Z" fill="#00BD7D"/>
<path d="M89.4035 1.1027C90.3599 0.149488 91.7521 -0.221129 93.0557 0.13046L125.666 8.92519C126.97 9.27677 127.987 10.2972 128.334 11.602L137.023 44.2406C137.37 45.5454 136.995 46.9364 136.038 47.8896L112.117 71.7334C111.161 72.6867 109.768 73.0573 108.465 72.7057L75.8546 63.911C74.5509 63.5594 73.5339 62.539 73.1865 61.2342L64.4979 28.5956C64.1505 27.2908 64.5257 25.8998 65.482 24.9466L89.4035 1.1027Z" fill="#00BD7D"/>
</svg>
