<svg width="770" height="770" viewBox="0 0 770 770" fill="none" xmlns="http://www.w3.org/2000/svg">
<path fill-rule="evenodd" clip-rule="evenodd" d="M385.226 591.124L385.226 610.467C385.226 610.467 248.468 551.881 191.429 417.384C161.74 347.377 166.244 224.301 166.244 224.301C166.244 224.301 233.827 214.271 275.735 202.153C319.75 189.426 385.226 160 385.226 160L385.226 179.343C385.226 179.343 325.373 206.242 285.138 217.876C246.829 228.954 185.05 238.122 185.05 238.122C185.05 238.122 180.933 350.629 208.072 414.623C260.213 537.57 385.226 591.124 385.226 591.124ZM385.226 334.333L357.761 334.373L357.589 435.917L385.226 435.877L385.226 334.333Z" fill="#DEDCDC"/>
<path fill-rule="evenodd" clip-rule="evenodd" d="M385.226 334.333L385.226 435.877L413.381 435.836L413.553 334.292L385.226 334.333ZM385.226 179.343C385.226 179.343 445.079 206.242 485.314 217.876C523.623 228.954 585.402 238.122 585.402 238.122C585.402 238.122 589.52 350.629 562.38 414.623C510.24 537.57 385.226 591.124 385.226 591.124L385.226 610.467C385.226 610.467 521.985 551.881 579.024 417.384C608.713 347.377 604.208 224.301 604.208 224.301C604.208 224.301 536.625 214.271 494.717 202.153C450.702 189.426 385.226 160 385.226 160L385.226 179.343Z" fill="#CFCFCF"/>
<path fill-rule="evenodd" clip-rule="evenodd" d="M385.226 334.333V435.877L357.589 435.917L357.761 334.373L385.226 334.333Z" fill="white"/>
<path fill-rule="evenodd" clip-rule="evenodd" d="M385.226 435.877V334.333L413.553 334.292L413.381 435.836L385.226 435.877Z" fill="#F0F0F0"/>
<path fill-rule="evenodd" clip-rule="evenodd" d="M385.226 179.344V292.508L385.226 293.113L392.85 293.147L414.89 314.139L444.759 342.695L457.053 354.178V435.942V436.543L414.183 436.6L414.14 477.226L413.555 477.224L385.226 477.095L385.226 477.699L385.226 591.125C385.226 591.125 510.24 537.57 562.381 414.624C589.52 350.629 585.402 238.123 585.402 238.123C585.402 238.123 523.623 228.954 485.314 217.877C445.079 206.242 385.226 179.344 385.226 179.344Z" fill="#F0F0F0"/>
<path fill-rule="evenodd" clip-rule="evenodd" d="M385.226 591.125L385.226 477.699L385.226 477.095L378.292 477.063L356.252 456.071L326.383 427.515L314.089 416.032V334.268V333.667L356.959 333.61L357.002 292.984L357.587 292.987L385.226 293.113L385.226 292.508V179.344C385.226 179.344 325.373 206.242 285.138 217.877C246.829 228.954 185.05 238.123 185.05 238.123C185.05 238.123 180.933 350.629 208.072 414.624C260.213 537.57 385.226 591.125 385.226 591.125Z" fill="white"/>
</svg>
